<?xml version="1.0" ?><!DOCTYPE svg  PUBLIC '-//W3C//DTD SVG 1.1//EN'  'http://www.w3.org/Graphics/SVG/1.1/DTD/svg11.dtd'><svg enable-background="new 0 0 91 91" height="91px" id="Layer_1" version="1.1" viewBox="0 0 91 91" width="91px" xml:space="preserve" xmlns="http://www.w3.org/2000/svg" xmlns:xlink="http://www.w3.org/1999/xlink"><g><path d="M34.726,45.278c0.396-7.238-5.433-12.213-12.196-12.938c-1.673-0.18-2.747,0.783-3.191,2.052   c-4.006,0.523-7.455,5.337-7.939,9.01c-0.821,6.252,3.931,12.051,10.189,12.498C28.197,56.373,34.349,52.17,34.726,45.278z    M16.291,43.116c0.491-2.268,2.013-3.57,3.637-4.823c0.567,0.704,1.432,1.172,2.603,1.152c3.407-0.059,7.011,2.086,6.588,5.908   c-0.448,4.012-4.919,5.766-8.544,4.856C17.577,49.459,15.64,46.107,16.291,43.116z"/><path d="M49.289,43.402c-0.818,6.252,3.932,12.051,10.189,12.498c6.607,0.473,12.758-3.73,13.139-10.623   c0.396-7.238-5.434-12.213-12.199-12.938c-1.672-0.18-2.746,0.783-3.188,2.052C53.223,34.915,49.773,39.729,49.289,43.402z    M67.01,45.353c-0.449,4.012-4.922,5.766-8.545,4.856c-2.998-0.75-4.936-4.102-4.285-7.093c0.492-2.268,2.014-3.57,3.639-4.823   c0.566,0.704,1.432,1.172,2.6,1.152C63.828,39.386,67.432,41.531,67.01,45.353z"/><path d="M41.21,36.28c6.606,0.472,12.759-3.731,13.136-10.623c0.398-7.238-5.432-12.213-12.195-12.938   c-1.673-0.18-2.747,0.782-3.191,2.051c-4.004,0.523-7.455,5.338-7.939,9.01C30.202,30.033,34.952,35.833,41.21,36.28z    M35.912,23.494c0.491-2.268,2.015-3.57,3.639-4.823c0.567,0.704,1.432,1.172,2.601,1.152c3.409-0.059,7.013,2.086,6.587,5.909   c-0.445,4.014-4.916,5.766-8.542,4.856C37.198,29.836,35.261,26.486,35.912,23.494z"/><path d="M41.474,51.285c-1.673-0.18-2.745,0.781-3.189,2.051c-4.006,0.523-7.457,5.338-7.941,9.012   c-0.819,6.252,3.933,12.051,10.189,12.498c6.61,0.473,12.758-3.73,13.139-10.623C54.068,56.984,48.238,52.01,41.474,51.285z    M48.064,64.297c-0.447,4.014-4.919,5.768-8.545,4.855c-2.999-0.75-4.936-4.1-4.283-7.092c0.491-2.27,2.013-3.57,3.637-4.824   c0.567,0.703,1.432,1.172,2.601,1.154C44.882,58.33,48.488,60.475,48.064,64.297z"/><path d="M28.443,84.779c5.759,2,11.556,2.506,17.292,1.908c0.309,0.031,0.635,0.027,0.981-0.031   c0.861-0.141,1.717-0.307,2.566-0.488c4.514-0.82,8.979-2.27,13.338-4.176c6.561-2.867,12.512-6.92,17.428-12.133   c4.838-5.129,7.344-11.098,10.424-17.313c0.477-0.961-0.967-1.813-1.445-0.846c-2.439,4.922-6.402,8.846-10.146,12.799   c-0.453,0.48-0.918,0.949-1.391,1.412c4.334-8.428,6.318-19.227,4.902-28.412C79.576,19.258,64.359,6.251,46.357,4.329   c-17.77-1.896-36.129,6.995-42.862,24.131c-4.579,11.653-4.065,26.099,1.815,37.197C10.158,74.809,18.755,81.414,28.443,84.779z    M7.089,38.134c2.559-15.768,15.699-27.132,31.549-28.026c17.226-0.971,32.659,8.514,37.208,25.457   c0.857,3.197,0.912,4.703,0.795,8.31c-0.189,6.007-1.223,12.11-3.771,17.595c-5.264,11.328-15.887,17.135-27.913,18.803   c-1.019,0.143-1.683,0.639-2.049,1.297c-2.214,0.057-4.416-0.088-6.565-0.5c-8.214-1.574-15.998-5.697-21.569-11.982   C7.356,60.719,5.332,48.945,7.089,38.134z"/><path d="M44.951,46.594c0.571-0.572,1.004-1.51,0.968-2.332c-0.082-1.788-1.45-3.299-3.299-3.299c-0.846,0-1.734,0.368-2.333,0.966   c-0.573,0.572-1.003,1.511-0.966,2.333c0.08,1.787,1.45,3.299,3.299,3.299C43.463,47.561,44.352,47.191,44.951,46.594z"/></g></svg>